<?xml version="1.0" encoding="UTF-8"?>
<svg id="Capa_2" data-name="Capa 2" xmlns="http://www.w3.org/2000/svg" viewBox="0 0 800 201.59">
  <defs>
    <style>
      .cls-1 {
        fill: #fff;
        stroke-width: 0px;
      }
    </style>
  </defs>
  <g id="Capa_1-2" data-name="Capa 1">
    <g>
      <g>
        <polygon class="cls-1" points="159.02 140.46 165.53 153.72 206.84 153.72 202.95 184.32 199.26 184.32 173.31 184.32 34.82 184.32 30.89 153.72 72.07 153.72 78.58 140.46 15.76 140.46 22.99 197.58 65.4 197.58 105.11 197.58 118.67 197.58 118.88 197.91 119.09 197.58 132.65 197.58 164.29 197.58 179.82 197.58 192.76 197.58 214.77 197.58 222.01 140.46 159.02 140.46"/>
        <path class="cls-1" d="M55.01,125.51h16.27v-7c0-26.25,21.35-47.6,47.6-47.6s47.6,21.35,47.6,47.6v7h71.28v-13.26h-55.31c-.38-3.94-1.13-7.77-2.2-11.47l51.08-21.03-5.05-12.26-51.03,21.01c-1.89-3.54-4.11-6.89-6.62-10l39-39-9.38-9.38-38.96,38.96c-3.03-2.48-6.29-4.69-9.74-6.59l21.17-50.8-12.24-5.1-21.15,50.76c-3.81-1.15-7.76-1.96-11.82-2.38V0h-13.26v54.98c-3.97.41-7.84,1.19-11.57,2.3L79.75,6.43l-12.26,5.05,20.95,50.89c-3.54,1.93-6.88,4.18-9.98,6.72L39.51,30.13l-9.38,9.38,39,39c-2.45,3.04-4.63,6.3-6.49,9.76l-50.94-21.23-5.1,12.24,50.99,21.25c-1.11,3.78-1.88,7.7-2.27,11.73H0v13.26h55.01Z"/>
        <polygon class="cls-1" points="132.05 151.47 156.64 160.41 126.24 98.48 118.82 83.37 111.4 98.48 81.13 160.15 101.74 150.98 118.85 115.75 118.85 171.25 132.05 151.47"/>
      </g>
      <g>
        <g>
          <g>
            <path class="cls-1" d="M374.45,113.97c-4.11,0-7.45,3.34-7.45,7.45s3.34,7.45,7.45,7.45,7.45-3.34,7.45-7.45-3.34-7.45-7.45-7.45Z"/>
            <g>
              <polygon class="cls-1" points="269.9 132.88 287.63 132.88 287.63 182.93 299.19 182.93 299.19 132.88 316.92 132.88 316.92 122.16 269.9 122.16 269.9 132.88"/>
              <path class="cls-1" d="M419.29,133.66c-.37-.03-.75-.04-1.12-.04-5.02,0-9.82,2.28-13.52,6.41l-.6.68v-7.08h-11.57v67.97h11.57v-25.77l.6.68c3.06,3.43,6.87,5.57,10.99,6.21.86.13,1.71.2,2.52.2,8.94,0,16.67-7.04,19.24-17.52.57-2.31.85-4.7.85-7.12,0-2.21-.24-4.41-.72-6.55-2.29-10.21-9.62-17.47-18.25-18.05ZM415.04,174.43c-6.06,0-10.99-7.17-10.99-15.99s4.93-15.99,10.99-15.99,10.99,7.17,10.99,15.99-4.93,15.99-10.99,15.99Z"/>
              <rect class="cls-1" x="368.67" y="133.62" width="11.56" height="48.89"/>
              <path class="cls-1" d="M470.42,154.79c-8.27-1.89-11.48-3.61-11.48-6.15,0-2.11,1.87-4.57,7.13-4.57,3,0,6.97.81,9.03,4.62l8.71-4.75-.13-.46c-1.8-6.18-8.04-9.87-16.7-9.87-11.27,0-18.56,6.37-18.56,16.23s6.84,12.91,17.1,15.09c6.62,1.37,9.57,2.87,9.57,4.85,0,2.3-3.59,3.54-6.96,3.54-6.87,0-10.9-4.72-12.25-6.65l-7.77,7.01.21.33c3.79,6.02,11.12,9.75,19.15,9.75s17.82-3.82,17.82-14.59-10.04-13.28-14.86-14.4Z"/>
              <path class="cls-1" d="M350.16,133.62c-3.94,0-10.24,2.49-14.13,7.1l-.61.72v-7.82h-11.57v49.31h11.57v-21.57c0-3.31.3-6.26.88-8.78.09-.42.2-.83.31-1.21,1.15-3.77,3.35-5.78,4.99-6.81,1.27-.71,2.23-.85,2.87-.42,1.32.88,1.39,3.97,1.36,5.18h11.66l.08-.43c1.03-5.6.38-10.13-1.82-12.77-1.36-1.63-3.29-2.49-5.59-2.49Z"/>
            </g>
          </g>
          <g>
            <g>
              <polygon class="cls-1" points="510.52 35.31 498.95 35.31 498.95 96.07 540.12 96.07 540.12 84.51 510.52 84.51 510.52 35.31"/>
              <polygon class="cls-1" points="634.38 46.76 625.07 61.17 615.68 46.76 602.39 46.76 618.38 71.41 602.39 96.07 615.77 96.07 625.07 81.75 634.29 96.07 647.67 96.07 631.68 71.41 647.67 46.76 634.38 46.76"/>
              <path class="cls-1" d="M787.47,46.76l-10.71,34.76-10.58-34.76h-12.43l16.51,47.4-1.24,2.63c-2.24,4.73-5.14,5.37-7.69,5.37-2.38,0-4.87-.7-6.47-1.83l-1.09-.76v12.19l.27.21c1.67,1.28,4.67,2.01,8.23,2.01,8.57,0,14.58-4.46,17.87-13.26l19.86-53.95h-12.53Z"/>
              <path class="cls-1" d="M580.49,77.56c0,6.28-4.29,10.34-10.93,10.34-5.98,0-8.89-3.35-8.89-10.25v-30.89h-11.56v32.08c0,10.47,6.43,17.23,16.39,17.23,6.25,0,11.48-2.47,14.37-6.79l.63-.95v7.74h11.56v-49.31h-11.56v30.81Z"/>
              <path class="cls-1" d="M690.25,77.56c0,6.28-4.29,10.34-10.93,10.34-5.98,0-8.89-3.35-8.89-10.25v-30.89h-11.56v32.08c0,10.47,6.43,17.23,16.39,17.23,6.25,0,11.48-2.47,14.37-6.79l.63-.95v7.74h11.56v-49.31h-11.56v30.81Z"/>
              <path class="cls-1" d="M739.53,46.77c-3.94,0-10.24,2.49-14.13,7.1l-.61.72v-7.82h-11.57v49.31h11.57v-21.57c0-3.31.3-6.26.88-8.78.09-.42.2-.83.31-1.21,1.15-3.77,3.35-5.78,4.99-6.81,1.27-.71,2.23-.85,2.87-.42,1.32.88,1.39,3.97,1.36,5.18h11.66l.08-.43c1.03-5.6.38-10.13-1.82-12.77-1.36-1.63-3.29-2.49-5.59-2.49Z"/>
            </g>
            <g>
              <path class="cls-1" d="M281.46,72.49h13.3c13.4,0,21.73-7.35,21.73-19.19,0-10.93-7-18-17.83-18h-28.77v60.77h11.56v-23.58ZM281.46,45.17h13.3c6.06,0,9.83,3.41,9.83,8.89s-3.47,8.55-9.06,8.55h-14.07v-17.45Z"/>
              <path class="cls-1" d="M360.49,82.9c-3.53,1.97-7.74,3.05-11.85,3.05-9.01,0-14.73-5.33-14.94-13.91v-.35s34.21,0,34.21,0l.02-.67c.01-.56.27-13.73-7.26-19.39-3.81-3.19-9-4.86-15.02-4.86-14.47,0-24.2,10.1-24.2,25.12s9.62,24.19,25.1,24.19c7.4,0,14.06-2.09,17.81-5.59l.37-.35-3.6-7.59-.65.36ZM345.25,55.95c9.67-.04,9.47,10.09,9.47,10.09h-19.98s.84-10.06,10.51-10.09Z"/>
              <path class="cls-1" d="M453.23,89.28l.63-.95v7.74h11.56v-49.31h-11.56v30.81c0,6.28-4.29,10.34-10.93,10.34-5.98,0-8.89-3.35-8.89-10.25v-30.89h-11.56v32.08c0,10.47,6.43,17.23,16.39,17.23,6.25,0,11.48-2.47,14.37-6.79Z"/>
              <path class="cls-1" d="M396.5,57.7c1.27-.71,2.23-.85,2.87-.42,1.32.88,1.39,3.97,1.36,5.18h11.66l.08-.43c1.03-5.6.38-10.13-1.82-12.77-1.36-1.63-3.29-2.49-5.59-2.49-3.94,0-10.24,2.49-14.13,7.1l-.61.72v-7.82h-11.57v49.31h11.57v-21.57c0-3.31.3-6.26.88-8.78.09-.42.2-.83.31-1.21,1.15-3.77,3.35-5.78,4.99-6.81Z"/>
              <polygon class="cls-1" points="441.07 40.9 449.08 40.9 457.46 27.67 447.04 27.67 441.07 40.9"/>
            </g>
          </g>
        </g>
        <g>
          <rect class="cls-1" x="780.05" y="150.45" width="16.5" height="16.5" transform="translate(118.67 603.89) rotate(-45)"/>
          <rect class="cls-1" x="655.96" y="150.45" width="16.5" height="16.5" transform="translate(82.32 516.15) rotate(-45)"/>
          <rect class="cls-1" x="718" y="150.45" width="16.5" height="16.5" transform="translate(100.5 560.02) rotate(-45)"/>
          <rect class="cls-1" x="593.92" y="150.45" width="16.5" height="16.5" transform="translate(64.15 472.28) rotate(-45)"/>
          <rect class="cls-1" x="531.88" y="150.45" width="16.5" height="16.5" transform="translate(45.98 428.41) rotate(-45)"/>
        </g>
      </g>
    </g>
  </g>
</svg>